<svg width="263" height="51" viewBox="0 0 263 51" fill="none" xmlns="http://www.w3.org/2000/svg">
<path d="M49.2528 48.9233C46.8578 49.5404 41.1969 51.011 36.011 48.0239C33.6427 46.613 31.706 44.586 30.4094 42.1612C28.3707 38.5045 28.3641 35.13 28.3641 31.8671C28.3641 27.4904 29.1009 23.943 30.5744 21.225C31.9085 18.6491 34.0101 16.5464 36.5916 15.2048C39.285 13.8643 42.2631 13.1887 45.2743 13.2353C47.1565 13.2354 49.0322 13.4558 50.8627 13.8918C52.3467 14.2263 53.7958 14.6989 55.1909 15.3033L53.073 20.9624C51.7815 20.4613 50.4592 20.0425 49.1143 19.7085C47.8217 19.3707 46.4919 19.1942 45.1556 19.1833C43.2366 19.107 41.3378 19.5982 39.6991 20.5948C38.2086 21.6144 37.0959 23.0929 36.5322 24.803C35.7876 27.0618 35.4416 29.4318 35.5095 31.808C35.5095 34.9527 35.5095 36.6334 36.5652 38.5767C37.4626 40.3269 38.9076 41.7393 40.6823 42.6011C43.6777 44.006 46.6665 43.0869 48.758 42.4238C52.7743 41.1033 56.3136 38.6406 58.9385 35.3401C60.9178 32.8387 60.5549 31.9328 63.4975 26.4246C65.1338 23.3587 66.6645 20.9493 67.707 19.3802L67.6212 30.2915C66.9284 32.261 61.5446 45.7458 49.2528 48.9233Z" fill="white"/>
<path d="M30.0663 36.6662C30.143 39.2094 29.4262 41.7138 28.0144 43.8353C26.5449 45.9026 24.5022 47.4995 22.1357 48.4308C19.2346 49.5674 16.1346 50.1164 13.0175 50.0459C11.3614 50.0465 9.70677 49.9478 8.06257 49.7504C6.57024 49.5715 5.09132 49.2952 3.63541 48.9232C2.37942 48.6178 1.16047 48.1775 0 47.6102V40.881C2.00885 41.7562 4.08505 42.4697 6.20858 43.0146C8.57523 43.6479 11.0155 43.968 13.4662 43.9666C15.2643 44.02 17.056 43.7303 18.7445 43.1131C20.0134 42.6506 21.1173 41.8263 21.918 40.7431C22.6234 39.6696 22.9991 38.4149 22.9991 37.1323C22.9991 35.8497 22.6234 34.5949 21.918 33.5215C21.0019 32.3764 19.8529 31.4367 18.5465 30.7641C16.5809 29.7042 14.5387 28.7913 12.4369 28.033C10.7835 27.4265 9.18167 26.6888 7.64691 25.8271C6.26342 25.0547 4.99533 24.0934 3.87953 22.9713C2.80229 21.8795 1.95839 20.582 1.39874 19.157C0.799016 17.5375 0.508143 15.8209 0.541027 14.0952C0.485643 11.7311 1.17802 9.40935 2.52038 7.4579C3.87875 5.56461 5.74743 4.0921 7.9108 3.21028C10.4454 2.18215 13.1642 1.67952 15.9008 1.73313C18.2904 1.71688 20.6743 1.97015 23.0066 2.48811C25.1489 2.98013 27.2389 3.67482 29.2482 4.56269L27.0049 10.4122C25.2215 9.67418 23.3897 9.05782 21.5221 8.5674C19.6213 8.08074 17.6656 7.83806 15.7028 7.84526C14.1896 7.79787 12.6833 8.06854 11.2823 8.63963C10.1971 9.05604 9.26984 9.79934 8.6299 10.7657C7.98995 11.732 7.66934 12.8731 7.71287 14.0296C7.66476 15.3055 8.01011 16.5655 8.70255 17.6404C9.52287 18.7703 10.5928 19.6979 11.8299 20.3518C13.6891 21.356 15.6083 22.2462 17.5766 23.0173C19.9377 23.8836 22.2055 24.9833 24.346 26.2998C26.0877 27.3504 27.5496 28.8029 28.6082 30.5343C29.6351 32.4123 30.1385 34.5294 30.0663 36.6662Z" fill="white"/>
<path d="M67.7004 13.3994C67.7004 14.4892 67.6542 15.5856 67.5685 16.682C67.4827 17.7783 67.3903 18.6515 67.3045 19.3802H67.7664C68.4814 18.1896 69.4388 17.1609 70.577 16.3603C71.719 15.5574 72.9911 14.9556 74.3378 14.5811C75.724 14.1879 77.1586 13.989 78.6 13.9903C81.0392 13.9148 83.4652 14.3742 85.7059 15.3361C87.5959 16.2111 89.1329 17.6966 90.067 19.5509C91.0567 21.4548 91.5516 23.9189 91.5516 26.9433V50.0197H84.6106V27.928C84.6106 25.1619 84.0169 23.0917 82.8292 21.7174C81.6416 20.3322 79.7876 19.6428 77.2804 19.6428C74.7733 19.6428 72.9522 20.1287 71.5667 21.0872C70.1234 22.1273 69.075 23.6216 68.5911 25.3282C67.9467 27.5615 67.6463 29.879 67.7004 32.2019V50.0197H60.6935V0.0524902H67.7004V13.3994Z" fill="white"/>
<path d="M124.514 31.6045C124.559 34.2628 124.157 36.9098 123.327 39.4367C122.611 41.5733 121.464 43.5417 119.955 45.2206C118.495 46.8024 116.689 48.0288 114.677 48.8051C112.46 49.6395 110.106 50.0515 107.736 50.0197C105.455 50.0435 103.19 49.6312 101.066 48.8051C99.0605 48.0153 97.2574 46.7907 95.7874 45.2206C94.2522 43.5439 93.0719 41.5769 92.3169 39.4367C90.4142 33.5969 90.6834 27.2712 93.0756 21.6124C94.3243 19.0066 96.3401 16.8405 98.8553 15.4018C101.611 13.9189 104.71 13.1831 107.842 13.2681C110.856 13.2042 113.832 13.9407 116.465 15.4018C118.986 16.8656 121.03 19.022 122.35 21.6124C123.789 24.3303 124.51 27.661 124.514 31.6045ZM98.2813 31.6045C98.2322 33.9126 98.5666 36.2129 99.271 38.4125C99.8186 40.1591 100.906 41.6892 102.379 42.7849C104.011 43.7769 105.886 44.3017 107.799 44.3017C109.711 44.3017 111.587 43.7769 113.219 42.7849C114.689 41.6885 115.774 40.1584 116.32 38.4125C117.029 36.1936 117.366 33.8734 117.316 31.5454C117.376 29.2443 117.028 26.9508 116.287 24.7702C115.711 23.0757 114.629 21.5962 113.186 20.5291C111.567 19.4813 109.659 18.9647 107.729 19.052C104.426 19.052 102.027 20.1461 100.531 22.3345C99.0357 24.5229 98.2857 27.6129 98.2813 31.6045Z" fill="white"/>
<path d="M157.068 31.6045C157.112 34.2628 156.711 36.9098 155.88 39.4367C155.165 41.5733 154.018 43.5417 152.509 45.2206C151.049 46.8024 149.243 48.0288 147.231 48.8051C145.014 49.6395 142.659 50.0515 140.29 50.0197C138.009 50.0435 135.744 49.6312 133.619 48.8051C131.614 48.0153 129.811 46.7907 128.341 45.2206C126.806 43.5439 125.626 41.5769 124.871 39.4367C123.995 36.9193 123.57 34.2682 123.617 31.6045C123.617 27.6654 124.277 24.3347 125.596 21.6124C126.845 19.0066 128.861 16.8405 131.376 15.4018C134.132 13.9189 137.231 13.1831 140.362 13.2681C143.376 13.2052 146.353 13.9416 148.986 15.4018C151.507 16.8656 153.55 19.022 154.871 21.6124C156.331 24.3303 157.064 27.661 157.068 31.6045ZM130.835 31.6045C130.786 33.9126 131.12 36.2129 131.825 38.4125C132.37 40.1603 133.458 41.6911 134.932 42.7849C136.563 43.777 138.438 44.302 140.349 44.302C142.261 44.302 144.135 43.777 145.766 42.7849C147.24 41.6911 148.328 40.1603 148.874 38.4125C149.581 36.1932 149.915 33.873 149.863 31.5454C149.925 29.2447 149.579 26.9513 148.841 24.7702C148.264 23.0757 147.183 21.5962 145.74 20.5291C144.121 19.4813 142.212 18.9647 140.283 19.052C136.975 19.052 134.576 20.1461 133.085 22.3345C131.594 24.5229 130.844 27.6129 130.835 31.6045Z" fill="white"/>
<path d="M165.883 50.0197H158.883V0.0524902H165.883V50.0197Z" fill="white"/>
<path d="M213.315 49.0349L209.013 46.0937L206.301 38.3994L206.176 27.2059H183.644V50.0197H176.512V0.0524902H183.644V20.772H206.176V0.0524902H213.315V49.0349Z" fill="white"/>
<path d="M236.948 11.9026V18.9798C238.2 17.4158 239.779 16.1417 241.576 15.2456C243.372 14.3496 245.343 13.8531 247.352 13.7906C249.361 13.7282 251.359 14.1012 253.208 14.8839C255.057 15.6666 256.713 16.8402 258.061 18.3233C260.7 21.3564 262.02 25.8578 262.02 31.8277C262.02 35.85 261.426 39.2047 260.238 41.8921C259.216 44.3741 257.463 46.4907 255.211 47.9648C252.954 49.3585 250.338 50.0701 247.683 50.0131C244.903 50.0131 242.677 49.5251 241.006 48.5491C239.442 47.671 238.072 46.4901 236.974 45.0762H236.447C235.965 46.724 235.477 48.3587 234.995 50.0131H231.492L230.383 44.761H229.974V0H236.948V11.9026ZM246.066 19.3671C244.171 19.2713 242.288 19.7276 240.649 20.6801C239.271 21.6254 238.266 23.0178 237.806 24.6192C237.18 26.8153 236.891 29.0928 236.948 31.3747V31.8999C236.948 35.9178 237.608 39.0012 238.927 41.1502C240.247 43.2992 242.666 44.3693 246.185 44.3606C247.445 44.424 248.7 44.1572 249.824 43.5869C250.949 43.0167 251.903 42.1629 252.591 41.1108C254.043 38.9487 254.769 35.8325 254.769 31.7621C254.769 27.6917 254.043 24.5973 252.591 22.479C251.158 20.4088 248.985 19.3715 246.073 19.3671H246.066Z" fill="white"/>
<path d="M236.948 13.9246C236.983 25.9606 237.012 37.9967 237.034 50.0328H231.67L230.601 44.7084H230.271C229.541 45.9174 228.549 46.9492 227.368 47.7284C226.174 48.5185 224.856 49.1064 223.469 49.4682C222.046 49.845 220.58 50.0348 219.107 50.0328C216.689 50.103 214.286 49.6412 212.068 48.6803C210.18 47.8087 208.643 46.3281 207.706 44.4787C206.635 42.1858 206.126 39.6723 206.222 37.1454C206.292 29.4029 206.363 21.667 206.433 13.9377H213.295V36.1081C213.295 38.8655 213.878 40.9247 215.043 42.2859C216.209 43.6471 218.025 44.3277 220.493 44.3277C222.961 44.3277 224.894 43.8418 226.306 42.8768C227.766 41.8464 228.828 40.3498 229.314 38.6357C229.954 36.4463 230.254 34.1727 230.205 31.8933V13.9246H236.948Z" fill="white"/>
</svg>
