<svg width="32" height="20" viewBox="0 0 32 20" fill="none" xmlns="http://www.w3.org/2000/svg">
<path id="Vector" d="M16 0C8.72727 0 2.51636 4.14667 0 10C2.51636 15.8533 8.72727 20 16 20C23.2727 20 29.4836 15.8533 32 10C29.4836 4.14667 23.2727 0 16 0ZM16 16.6667C11.9855 16.6667 8.72727 13.68 8.72727 10C8.72727 6.32 11.9855 3.33333 16 3.33333C20.0145 3.33333 23.2727 6.32 23.2727 10C23.2727 13.68 20.0145 16.6667 16 16.6667ZM16 6C13.5855 6 11.6364 7.78667 11.6364 10C11.6364 12.2133 13.5855 14 16 14C18.4145 14 20.3636 12.2133 20.3636 10C20.3636 7.78667 18.4145 6 16 6Z" fill="#6B6B6B"/>
</svg>
